PathFileType	4	(X/Y/Z)	F:\MotionCapture\20160217\3\Generated_files\EMG_test05-Dynamic.trc
DataRate	CameraRate	NumFrames	NumMarkers	Units	OrigDataRate	OrigDataStartFrame	OrigNumFrames
120.00	120.00	       6	39	mm	120.00	625	       714
Frame#	Time	Top.Head			Front.Head			Rear.Head			R.Shoulder			R.Offset			R.Elbow			R.Wrist			L.Shoulder			L.Elbow			L.Wrist			R.ASIS			L.ASIS			V.Sacral			R.Thigh			R.Knee			R.Shank			R.Ankle			R.Heel			R.Toe			L.Thigh			L.Knee			L.Shank			L.Ankle			L.Heel			L.Toe			R1			R2			R3			R4			R5			R6			R7			L1			L2			L3			L4			L5			L6			L7			V_Mid_ASIS			V_Pelvis_Origin			V_R.Hip_JC			V_L.Hip_JC			V_R.Knee_JC			V_L.Knee_JC			V_R.Ankle_JC			V_L.Ankle_JC			V_Mid_Hip			V_Mid_Shoulder			V_R.Hand			V_L.Hand			V_R.Toe_Offset_Static			V_L.Toe_Offset_Static			V_R.Toe_Offset			V_L.Toe_Offset			
		X1	Y1	Z1	X2	Y2	Z2	X3	Y3	Z3	X4	Y4	Z4	X5	Y5	Z5	X6	Y6	Z6	X7	Y7	Z7	X8	Y8	Z8	X9	Y9	Z9	X10	Y10	Z10	X11	Y11	Z11	X12	Y12	Z12	X13	Y13	Z13	X14	Y14	Z14	X15	Y15	Z15	X16	Y16	Z16	X17	Y17	Z17	X18	Y18	Z18	X19	Y19	Z19	X20	Y20	Z20	X21	Y21	Z21	X22	Y22	Z22	X23	Y23	Z23	X24	Y24	Z24	X25	Y25	Z25	X26	Y26	Z26	X27	Y27	Z27	X28	Y28	Z28	X29	Y29	Z29	X30	Y30	Z30	X31	Y31	Z31	X32	Y32	Z32	X33	Y33	Z33	X34	Y34	Z34	X35	Y35	Z35	X36	Y36	Z36	X37	Y37	Z37	X38	Y38	Z38	X39	Y39	Z39	

625	5.200	2621.86597	-34.24983	1721.37317	2690.74146	-82.74739	1611.17383	2528.74023	46.52716	1682.04919	2496.93750	-169.97754	1433.54382	2408.69922	115.45003	1285.74133	2442.06836	-264.23346	1110.43506	2568.17432	-308.74127	884.64673	2577.10913	229.30681	1448.26245	2588.26147	323.58661	1120.08008	2717.32202	307.63165	899.23834	2601.84839	-122.03976	964.05334	2630.93872	164.84602	957.83240	2392.55347	40.32829	948.26111	2742.41772	-141.01027	625.96069	2685.24121	-174.30141	499.74268	2615.48193	-79.97952	280.35492	2482.53589	-114.23879	151.68726	2432.23291	-30.14337	147.97447	2596.50415	-132.98108	69.54301	2688.51099	113.72225	638.75696	2599.82300	149.83080	471.27084	2618.55591	65.14465	335.82703	2535.05640	103.78138	69.19961	2476.67017	41.95166	54.64041	2677.12036	109.56955	49.69780	2642.91089	-134.42960	52.88000	2615.98267	-102.46688	70.40878	2549.45850	-44.50629	116.87717	2486.68457	-20.26795	131.79352	2443.54224	-81.98613	138.44052	2497.85059	-132.28075	99.18412	2553.70313	-157.81985	76.36903	2725.45630	90.40840	43.41410	2692.30347	72.38857	52.20059	2602.23096	20.17731	55.75238	2517.74194	14.03047	53.98466	2500.54883	83.15038	51.59537	2570.37598	119.86237	44.61261	2632.50366	139.86032	46.08194																																																	2524.22998	-61.41424	119.90802	
626	5.208	2629.22461	-36.89810	1720.49585	2699.81982	-93.20084	1611.26111	2538.91895	46.45728	1681.95459	2503.38306	-169.29224	1432.97107	2417.55884	117.91730	1286.07190	2445.67188	-262.45709	1110.23804	2568.26489	-308.44342	882.24048	2587.41797	229.10292	1449.16541	2601.39795	323.86819	1120.21643	2736.09399	303.19431	903.41443	2609.25757	-121.25024	964.20074	2637.91260	165.70897	956.89087	2399.41724	40.44866	947.95044	2752.43091	-138.08727	627.78674	2696.55664	-173.17758	501.19107	2635.77832	-78.97749	278.24121	2510.02271	-114.96279	142.37881	2458.74170	-32.10022	136.33009	2628.41846	-133.89336	67.40040	2694.05225	114.28938	637.50610	2604.59546	149.80399	470.75861	2621.45142	64.88469	335.10825	2535.26855	103.26846	69.32427	2477.83716	41.62197	54.80452	2677.15820	109.55920	49.66877	2675.08228	-134.12259	52.16254	2647.70532	-103.12868	69.10859	2578.07031	-45.86792	110.41491	2512.11743	-19.25091	125.97866	2471.81396	-83.16587	127.25897	2528.35767	-133.18094	92.47216	2585.46143	-158.54129	72.33004	2725.60889	90.48540	43.40162	2692.47534	72.40767	52.10638	2602.49756	19.96980	55.27771	2514.70239	13.00892	55.11298	2501.00024	82.73170	51.61018	2570.44263	119.52856	44.54306	2632.56079	139.74521	46.07554																																																	6145.65820	-1027.36157	1518.32068	
627	5.217	2636.54248	-39.76914	1719.85486	2701.69067	-92.23200	1609.01001	2548.81494	46.49450	1681.73535	2510.07935	-168.76756	1432.43359	2426.06812	118.60988	1286.53113	2449.61670	-260.44986	1110.07654	2568.99023	-308.42300	881.41565	2597.86133	228.77040	1449.70837	2615.38770	323.36005	1121.47705	2754.54712	298.80438	907.68262	2616.89185	-120.83681	963.67914	2645.21948	166.49487	956.32190	2406.21289	39.61189	947.98145	2761.37280	-135.25719	628.97839	2706.99438	-171.18120	502.15814	2655.90283	-78.31196	276.42426	2537.86768	-115.68781	134.04935	2486.34399	-33.12640	124.72820	2660.64331	-134.52519	66.20356	2699.71240	114.75431	636.19159	2608.95386	149.85316	470.09024	2623.99243	64.71628	334.16086	2535.96924	102.33000	69.20220	2476.89453	40.38741	55.25821	2677.19507	109.49463	49.62041	2707.46680	-134.32607	52.39029	2679.54224	-103.80851	68.52435	2608.06201	-44.65482	107.35029	2538.34766	-20.24191	113.13506	2499.15967	-85.46974	115.98066	2559.15381	-134.85551	85.30250	2616.18945	-159.57645	66.24557	2725.72559	90.61367	43.29557	2692.66699	72.41886	52.07934	2602.74390	20.12171	54.79985	2518.75220	13.88922	53.91536	2501.06396	82.36746	51.56950	2570.48047	119.39096	44.57290	2632.55176	139.67960	46.08614	
628	5.225	2643.85498	-42.22703	1718.75024	2706.76270	-97.07342	1607.80627	2558.80396	46.40920	1681.57849	2516.41479	-168.89322	1431.80615	2434.23877	119.97047	1286.87305	2453.43481	-258.62683	1109.75549	2569.55884	-308.90997	878.98401	2608.15649	227.90303	1449.98584	2628.28125	323.28406	1121.75098	2772.75146	294.32376	912.04175	2624.30908	-120.58733	963.45172	2652.52832	167.07422	955.52557	2415.39941	40.84588	947.56775	2770.22974	-132.29271	629.90454	2716.59326	-169.83740	502.61981	2675.96216	-77.81646	274.28540	2566.56348	-116.66153	126.00908	2515.00708	-34.25456	114.30585	2692.87329	-135.32593	65.76491	2705.56201	114.96827	635.07605	2613.36279	150.34486	469.15619	2627.68628	64.95052	333.53232	2535.92798	101.84012	68.90977	2476.75684	39.91385	55.45914	2677.23242	109.52128	49.58685	2741.58594	-136.14749	56.55283	2711.54541	-104.22548	69.39565	2637.79858	-44.87244	103.33847	2570.26367	-21.09837	104.73531	2530.44556	-85.65392	106.22503	2591.07153	-134.49582	79.75858	2648.59009	-160.11185	63.16243	2725.81616	90.73528	43.24476	2692.75269	72.35318	52.02126	2602.73901	19.80360	54.36861	2524.60376	15.01195	52.01807	2501.06836	81.97320	51.60751	2571.11914	119.68373	45.06635	2632.53101	139.56168	46.04002																																																	6167.40674	-1024.68250	1517.96790	
629	5.233	2651.02588	-44.82507	1717.95850	2711.83325	-101.85009	1606.27380	2568.89917	45.91738	1681.03882	2522.37817	-167.58150	1430.41382	2443.04980	121.09798	1287.31287	2457.20264	-257.10324	1109.04736	2570.06616	-309.05099	877.65979	2618.71875	227.55043	1450.35657	2641.00464	322.76978	1122.20142	2790.41943	289.50320	916.23883	2631.69165	-120.41921	962.93665	2659.98145	167.33618	954.75305	2424.00049	41.35270	946.21698	2778.65894	-129.70265	630.60455	2725.77954	-168.59633	502.83844	2696.04712	-77.83257	272.64670	2594.80688	-117.61411	118.38708	2541.87305	-38.59300	100.97505	2724.83740	-135.95451	65.82127	2711.21948	114.98666	633.74872	2617.76807	150.31383	468.39761	2630.24194	64.95470	332.56720	2536.13843	101.51720	69.29018	2477.46460	39.70054	55.50842	2677.23413	109.48196	49.57696	2773.79224	-136.61588	59.31177	2742.82813	-104.84305	69.68012	2667.52686	-46.03196	99.76239	2597.13330	-22.04510	95.67917	2559.75488	-86.44417	97.00612	2622.56738	-136.88420	74.13270	2680.56396	-160.96658	60.17881	2725.89087	90.86869	43.16154	2692.80591	72.37634	51.87197	2602.56299	19.33936	52.44264	2521.57715	13.84817	53.23887	2501.31299	81.37355	51.77903	2570.48291	118.97802	44.55521	2632.52563	139.46240	45.98990	
630	5.242	2658.24731	-48.28216	1716.75818	2716.51025	-106.59460	1604.76587	2578.82739	45.77179	1680.31689	2529.94385	-167.55190	1429.90344	2450.98096	122.99928	1287.06885	2461.10986	-255.96593	1108.38855	2570.80200	-308.99319	876.54224	2627.94312	225.89084	1450.35242	2653.73877	322.74448	1122.18799	2807.75488	284.99634	920.42041	2639.13745	-120.36133	962.20007	2667.74512	167.86977	954.05029	2431.83203	42.32150	945.63818	2786.57422	-126.94479	630.52637	2733.98608	-167.19807	502.61908	2715.87158	-78.13007	271.18719	2623.27954	-118.04497	111.40416	2573.66211	-37.50903	93.57832	2755.10132	-135.41295	64.01484	2717.17236	114.72339	632.74243	2622.26367	150.61151	467.56583	2634.04810	65.42491	331.86377	2536.31274	101.37566	69.88496	2477.69409	39.44405	55.70140	2677.27271	109.48742	49.50591	2804.92993	-137.14600	62.05931	2773.72314	-105.09834	71.32423	2696.68188	-47.10478	96.99720	2627.48364	-22.49321	90.49913	2589.52124	-88.20438	88.06010	2653.36987	-137.52231	68.68195	2712.07983	-161.97736	58.20579	2725.99365	91.04430	43.15041	2692.91528	72.45100	51.74690	2601.12622	18.95098	51.87347	2517.52832	11.88474	55.09504	2501.57153	80.86214	52.05406	2570.48950	118.76459	44.48573	2633.26685	139.49370	46.10745																																																	2543.48901	-68.65168	106.39091	2484.38696	223.67635	1012.86151	4854.83447	-374.12878	1279.14526	6217.43701	-1031.34216	1514.95642	
